# xmcd CD database file
# Copyright (C) 1993-1996 Ti Kan
#
# Track frame offsets:
# 150
# 18213
# 32303
# 46950
# 70488
# 103808
# 117188
# 135418
# 147118
# 170375
# 192088
# 214558
#
# Disc length: 3184 seconds
#
# Revision: 0
# Processed by: cddbd v1.4b41PL1 Copyright (c) Steve Scherf et al.
# Submitted via: inCDius 1.1b5
#
DISCID=9b0c6e0c
DTITLE=Charlie Daniels Band - 36 AllTime Greatest Hits
DYEAR=1900
DGENRE=
TTITLE0=The South's Gonna Do It Again
TTITLE1=Roll Mississippi
TTITLE2=Heaven Can Be Anywhere (Twin Pines Theme)
TTITLE3=Red Neck Fiddlin' Man
TTITLE4=Rainbow Ride
TTITLE5=Orange Blossom Special
TTITLE6=Long Haired Country Boy
TTITLE7=Dixie On My Mind
TTITLE8=Carolina (I Remember You)
TTITLE9=Trudy
TTITLE10=Sweet Home Alabama
TTITLE11=Reflections
EXTD=
EXTT0=
EXTT1=
EXTT2=
EXTT3=
EXTT4=
EXTT5=
EXTT6=
EXTT7=
EXTT8=
EXTT9=
EXTT10=
EXTT11=
PLAYORDER=
